<svg width="102" height="54" viewBox="0 0 102 54" fill="none" xmlns="http://www.w3.org/2000/svg">
<path d="M4.22266 47.1743C4.22266 47.0974 4.24827 47.0282 4.29439 46.9744C4.34051 46.9207 4.40968 46.895 4.50447 46.895H4.91695C5.01174 46.895 5.08092 46.9207 5.12703 46.9744C5.17315 47.0282 5.19877 47.0974 5.19877 47.1743V50.8891C5.19877 51.1556 5.25513 51.3477 5.37298 51.4681C5.48827 51.5886 5.65993 51.65 5.89306 51.65H7.09463C7.19455 51.65 7.26628 51.6757 7.30984 51.7269C7.35339 51.7781 7.37645 51.8448 7.37645 51.9293V52.1522C7.37645 52.2291 7.35339 52.2957 7.30984 52.3495C7.26628 52.4058 7.19455 52.4314 7.09463 52.4314H5.69323C5.21158 52.4314 4.84522 52.3034 4.5967 52.0446C4.34819 51.7858 4.22266 51.4169 4.22266 50.9327V47.1743Z" fill="#EB7302"/>
<path d="M8.2705 49.147H7.90926C7.80934 49.147 7.73761 49.1188 7.69405 49.065C7.6505 49.0112 7.62744 48.942 7.62744 48.8575V48.673C7.62744 48.5936 7.6505 48.5296 7.69405 48.4732C7.73761 48.4194 7.80934 48.3938 7.90926 48.3938H8.91099C9.00578 48.3938 9.07496 48.4194 9.12364 48.4732C9.16975 48.5295 9.19281 48.5936 9.19281 48.673V52.1522C9.19281 52.2291 9.16975 52.2957 9.12364 52.3495C9.07496 52.4058 9.00578 52.4314 8.91099 52.4314H8.54975C8.4524 52.4314 8.38066 52.4058 8.33711 52.3495C8.29355 52.2957 8.2705 52.2291 8.2705 52.1522V49.147ZM8.54975 47.72C8.4524 47.72 8.38066 47.6943 8.33711 47.6431C8.29355 47.5919 8.2705 47.5227 8.2705 47.4407V47.1743C8.2705 47.0974 8.29356 47.0282 8.33711 46.9744C8.38066 46.9207 8.4524 46.895 8.54975 46.895H8.91099C9.00578 46.895 9.07496 46.9207 9.12364 46.9744C9.16975 47.0282 9.19281 47.0974 9.19281 47.1743V47.4407C9.19281 47.5227 9.16975 47.5919 9.12364 47.6431C9.07496 47.6943 9.00578 47.72 8.91099 47.72H8.54975Z" fill="#EB7302"/>
<path d="M10.4048 48.6731C10.4048 48.5936 10.4278 48.5296 10.474 48.4732C10.5201 48.4194 10.5918 48.3938 10.684 48.3938H11.0453C11.1401 48.3938 11.2092 48.4194 11.2554 48.4732C11.304 48.5296 11.3271 48.5936 11.3271 48.6731V49.1316L11.5859 48.8652C11.7268 48.7192 11.8907 48.5911 12.0752 48.4886C12.2597 48.3861 12.4877 48.3349 12.7592 48.3349C13.0949 48.3349 13.3716 48.4297 13.5893 48.6167C13.8071 48.8063 13.9173 49.147 13.9173 49.6338V52.1522C13.9173 52.2291 13.8968 52.2957 13.8506 52.3495C13.8071 52.4058 13.7354 52.4315 13.638 52.4315H13.2768C13.1768 52.4315 13.1051 52.4058 13.0616 52.3495C13.018 52.2957 12.9949 52.2291 12.9949 52.1522V49.8106C12.9949 49.5313 12.9411 49.3417 12.8284 49.2444C12.7182 49.1496 12.5902 49.1009 12.4416 49.1009C12.2699 49.1009 12.1008 49.1675 11.9394 49.2982C11.778 49.4288 11.6422 49.5467 11.5346 49.6543L11.3271 49.8618V52.1522C11.3271 52.2291 11.304 52.2957 11.2554 52.3495C11.2092 52.4058 11.1401 52.4315 11.0453 52.4315H10.684C10.5918 52.4315 10.5201 52.4058 10.474 52.3495C10.4278 52.2957 10.4048 52.2291 10.4048 52.1522V48.6731Z" fill="#EB7302"/>
<path d="M15.1135 47.1743C15.1135 47.0974 15.1366 47.0282 15.1853 46.9744C15.2314 46.9207 15.3005 46.895 15.3953 46.895H15.7566C15.8488 46.895 15.9205 46.9207 15.9667 46.9744C16.0128 47.0282 16.0358 47.0974 16.0358 47.1743V49.1316L16.2946 48.8652C16.4381 48.7191 16.602 48.591 16.7865 48.4886C16.971 48.3861 17.199 48.3349 17.4705 48.3349C17.8036 48.3349 18.0803 48.4373 18.3006 48.6397C18.5184 48.8447 18.6286 49.2034 18.6286 49.7132V52.1522C18.6286 52.2291 18.6055 52.2957 18.5619 52.3495C18.5184 52.4058 18.4467 52.4314 18.3493 52.4314H17.9932C17.8958 52.4314 17.8241 52.4058 17.7805 52.3495C17.7344 52.2957 17.7139 52.2291 17.7139 52.1522V49.8105C17.7139 49.5313 17.6576 49.3417 17.5423 49.2444C17.4296 49.1496 17.2989 49.1009 17.1529 49.1009C16.9786 49.1009 16.8121 49.1675 16.6507 49.2982C16.4867 49.4288 16.3535 49.5467 16.2434 49.6543L16.0358 49.8618V52.1522C16.0358 52.2291 16.0128 52.2957 15.9667 52.3495C15.9205 52.4058 15.8488 52.4314 15.7566 52.4314H15.3953C15.3005 52.4314 15.2314 52.4058 15.1853 52.3495C15.1366 52.2957 15.1135 52.2291 15.1135 52.1522V47.1743Z" fill="#EB7302"/>
<path d="M19.5969 50.4664C19.5969 49.8388 19.8198 49.334 20.2707 48.9574C20.7216 48.5808 21.2263 48.3938 21.7874 48.3938H22.8967C22.989 48.3938 23.0607 48.4194 23.1068 48.4732C23.1529 48.5296 23.176 48.5936 23.176 48.6731V52.1522C23.176 52.2291 23.1529 52.2957 23.1068 52.3495C23.0607 52.4058 22.989 52.4315 22.8967 52.4315H22.5355C22.4407 52.4315 22.3715 52.4058 22.3229 52.3495C22.2768 52.2957 22.2537 52.2291 22.2537 52.1522V51.7295L21.9591 51.9959C21.8053 52.1343 21.6363 52.2496 21.4492 52.3469C21.2622 52.4417 21.0368 52.4904 20.7703 52.4904C20.4449 52.4904 20.1682 52.3802 19.9402 52.1625C19.7097 51.9447 19.5969 51.5886 19.5969 51.1018V50.4664ZM20.5192 51.0224C20.5192 51.3016 20.573 51.4887 20.6806 51.5835C20.7908 51.6757 20.9189 51.7218 21.0726 51.7218C21.2545 51.7218 21.4364 51.6552 21.6183 51.5194C21.8002 51.3836 21.9463 51.2709 22.0539 51.1761L22.2537 50.9763V49.147H21.8412C21.462 49.147 21.1469 49.2649 20.8958 49.5006C20.6448 49.7363 20.5192 50.0565 20.5192 50.4613V51.0224Z" fill="#EB7302"/>
<path d="M24.1958 51.8627C24.1958 51.7833 24.2163 51.7269 24.2547 51.6936C24.2931 51.6577 24.3469 51.6424 24.411 51.6424H24.4469L24.4904 51.6501C24.6723 51.6783 24.8388 51.7013 24.9849 51.7167C25.1335 51.7295 25.2974 51.7371 25.4742 51.7371C25.715 51.7371 25.9251 51.7038 26.1019 51.6347C26.2787 51.5655 26.3658 51.4348 26.3658 51.2427C26.3658 51.1043 26.3043 51.0018 26.1813 50.9327C26.0583 50.8635 25.9251 50.8123 25.7842 50.7764L25.1693 50.6381C24.8747 50.5638 24.6364 50.4408 24.452 50.2717C24.265 50.1026 24.1753 49.8541 24.1753 49.5313C24.1753 49.1265 24.3444 48.8267 24.6826 48.6295C25.0233 48.4322 25.4358 48.3348 25.9251 48.3348C26.1198 48.3348 26.2864 48.3425 26.4196 48.3553C26.5502 48.3706 26.7014 48.3937 26.8679 48.4219C26.9474 48.4321 27.0037 48.4603 27.0396 48.5039C27.0729 48.5474 27.0908 48.6089 27.0908 48.6884V48.9471C27.0908 49.0214 27.0729 49.0778 27.0345 49.1162C26.9986 49.1546 26.9474 49.1751 26.8833 49.1751L26.8013 49.1649L26.6912 49.147C26.5887 49.1316 26.4708 49.1188 26.3402 49.106C26.2095 49.0932 26.0737 49.0881 25.9303 49.0881C25.6945 49.0881 25.4998 49.1214 25.3436 49.1854C25.1898 49.252 25.1104 49.3699 25.1104 49.5364C25.1104 49.6748 25.1642 49.767 25.2667 49.8131C25.3692 49.8618 25.4845 49.9002 25.6126 49.9361L26.1531 50.0616C26.4631 50.1359 26.7322 50.2538 26.9602 50.4152C27.1907 50.5791 27.3035 50.8533 27.3035 51.2427C27.3035 51.7243 27.1139 52.0548 26.7322 52.2291C26.3504 52.4033 25.9303 52.4904 25.4742 52.4904C25.2718 52.4904 25.0925 52.4827 24.9336 52.4647C24.7774 52.4468 24.6108 52.4263 24.4315 52.4033C24.3393 52.3879 24.2752 52.3572 24.2445 52.3085C24.2112 52.2624 24.1958 52.2009 24.1958 52.1214V51.8627" fill="#EB7302"/>
<path d="M29.978 50.4664C29.978 49.8388 30.2009 49.334 30.6518 48.9574C31.1027 48.5808 31.61 48.3938 32.1685 48.3938H33.2779C33.3701 48.3938 33.4418 48.4194 33.4879 48.4732C33.534 48.5296 33.5571 48.5936 33.5571 48.6731V52.1522C33.5571 52.2291 33.534 52.2957 33.4879 52.3495C33.4418 52.4058 33.3701 52.4315 33.2779 52.4315H32.9166C32.8218 52.4315 32.7526 52.4058 32.7065 52.3495C32.6579 52.2957 32.6348 52.2291 32.6348 52.1522V51.7295L32.3402 51.9959C32.1865 52.1343 32.0174 52.2496 31.8303 52.3469C31.6433 52.4417 31.4179 52.4904 31.1514 52.4904C30.826 52.4904 30.5493 52.3802 30.3213 52.1625C30.0908 51.9447 29.978 51.5886 29.978 51.1018V50.4664ZM30.9003 51.0224C30.9003 51.3016 30.9541 51.4887 31.0617 51.5835C31.1719 51.6757 31.3026 51.7218 31.4537 51.7218C31.6356 51.7218 31.8175 51.6552 31.9994 51.5194C32.1813 51.3836 32.3274 51.2709 32.435 51.1761L32.6348 50.9763V49.147H32.2223C31.8431 49.147 31.528 49.2649 31.2769 49.5006C31.0259 49.7363 30.9003 50.0565 30.9003 50.4613V51.0224Z" fill="#EB7302"/>
<path d="M34.5103 50.0693C34.5103 49.498 34.6973 49.065 35.0713 48.773C35.4454 48.4809 35.8988 48.3349 36.4292 48.3349C36.8596 48.3349 37.2234 48.4271 37.5257 48.6141C37.828 48.8011 37.9817 49.1086 37.9817 49.5364C37.9817 49.9207 37.8639 50.2102 37.6307 50.4049C37.3976 50.5996 37.0722 50.697 36.6598 50.697H35.4326V50.8738C35.4326 51.1786 35.5299 51.3964 35.7221 51.5271C35.9142 51.6577 36.1422 51.7218 36.4087 51.7218C36.6111 51.7218 36.7955 51.7039 36.9621 51.668C37.1286 51.6321 37.2772 51.5963 37.4053 51.5681L37.4617 51.5579L37.5078 51.5526L37.6307 51.6038C37.6615 51.6397 37.6794 51.6884 37.6794 51.7524V51.9804C37.6794 52.0701 37.664 52.1418 37.6333 52.1982C37.6051 52.2545 37.5488 52.293 37.4719 52.3135C37.3489 52.3494 37.1875 52.3852 36.9877 52.4288C36.7879 52.4698 36.5855 52.4902 36.3779 52.4902C35.8527 52.4902 35.4095 52.3647 35.0508 52.1111C34.6896 51.8574 34.5103 51.4398 34.5103 50.8583V50.0693ZM35.4326 50.1359H36.424C36.6726 50.1359 36.8468 50.0898 36.9441 49.9976C37.0389 49.9079 37.0876 49.7773 37.0876 49.603C37.0876 49.416 37.021 49.2854 36.8929 49.2136C36.7622 49.1393 36.5983 49.1009 36.401 49.1009C36.1012 49.1009 35.8655 49.1803 35.6913 49.3392C35.5197 49.4954 35.4326 49.7439 35.4326 50.0847V50.1359ZM35.9065 47.8173L35.7964 47.7866L35.7579 47.72L35.7656 47.6739L35.8015 47.6175L36.3113 46.895C36.3523 46.831 36.3959 46.7746 36.4497 46.7311C36.5009 46.6875 36.5726 46.6645 36.6674 46.6645H37.1388C37.2131 46.6645 37.2644 46.6747 37.2951 46.6952L37.3387 46.7823L37.3131 46.8643L37.249 46.9386L36.5419 47.6175C36.4727 47.6764 36.4087 47.7251 36.3523 47.761C36.296 47.7994 36.2345 47.8173 36.1653 47.8173H35.9065" fill="#EB7302"/>
<path d="M38.8733 48.673C38.8733 48.5936 38.8989 48.5296 38.945 48.4732C38.9911 48.4194 39.0603 48.3938 39.1551 48.3938H39.5163C39.6111 48.3938 39.6803 48.4194 39.7264 48.4732C39.7751 48.5295 39.7956 48.5936 39.7956 48.673V49.1598L39.8648 49.0727C40.0006 48.8703 40.162 48.7038 40.3464 48.5731C40.5309 48.4425 40.741 48.3784 40.9792 48.3784H41.0151C41.1073 48.3784 41.1791 48.4041 41.2252 48.4553C41.2713 48.5065 41.2969 48.5757 41.2969 48.6577V48.9549C41.2969 49.042 41.2713 49.1111 41.2252 49.1598C41.1791 49.211 41.1073 49.2341 41.0151 49.2341H40.9408C40.7948 49.2341 40.6513 49.2572 40.513 49.3007C40.3746 49.3443 40.2542 49.4109 40.1517 49.5006C40.1466 49.5006 40.0877 49.5543 39.9749 49.662C39.8622 49.7721 39.8033 49.8285 39.7956 49.8336V52.1522C39.7956 52.2291 39.7751 52.2957 39.7264 52.3495C39.6803 52.4058 39.6111 52.4315 39.5163 52.4315H39.1551C39.0603 52.4315 38.9911 52.4058 38.945 52.3495C38.8989 52.2957 38.8733 52.2291 38.8733 52.1522V48.673Z" fill="#EB7302"/>
<path d="M41.6736 50.0693C41.6736 49.498 41.8606 49.065 42.2347 48.773C42.6087 48.4809 43.0622 48.3349 43.5925 48.3349C44.0204 48.3349 44.3868 48.4271 44.6891 48.6141C44.9914 48.8011 45.1425 49.1086 45.1425 49.5364C45.1425 49.9207 45.0273 50.2102 44.7916 50.4049C44.5584 50.5997 44.2356 50.697 43.8206 50.697H42.5959V50.8738C42.5959 51.1787 42.6907 51.3964 42.8829 51.5271C43.075 51.6578 43.3056 51.7218 43.5695 51.7218C43.7719 51.7218 43.9563 51.7039 44.1254 51.668C44.292 51.6321 44.438 51.5963 44.5661 51.5681L44.6224 51.5579L44.6711 51.5526L44.7915 51.6038C44.8248 51.6397 44.8402 51.6884 44.8402 51.7524V51.9805C44.8402 52.0701 44.8248 52.1419 44.7966 52.1982C44.7659 52.2546 44.7121 52.293 44.6327 52.3135C44.5097 52.3494 44.3483 52.3852 44.151 52.4288C43.9512 52.4698 43.7462 52.4903 43.5413 52.4903C43.0135 52.4903 42.5703 52.3647 42.2116 52.1111C41.8529 51.8574 41.6736 51.4398 41.6736 50.8583L41.6736 50.0693ZM42.5959 50.1359H43.5849C43.8359 50.1359 44.0101 50.0898 44.1049 49.9976C44.2023 49.9079 44.2484 49.7773 44.2484 49.603C44.2484 49.416 44.1844 49.2854 44.0537 49.2136C43.923 49.1393 43.7591 49.1009 43.5618 49.1009C43.262 49.1009 43.0263 49.1803 42.8547 49.3392C42.6805 49.4954 42.5959 49.744 42.5959 50.0847V50.1359" fill="#EB7302"/>
<path d="M45.8086 50.4664C45.8086 49.8388 46.0341 49.334 46.4824 48.9574C46.9333 48.5808 47.438 48.3938 48.0016 48.3938H49.1084C49.2006 48.3938 49.2724 48.4194 49.3185 48.4732C49.3646 48.5296 49.3877 48.5936 49.3877 48.6731V52.1522C49.3877 52.2291 49.3646 52.2957 49.3185 52.3495C49.2724 52.4058 49.2006 52.4315 49.1084 52.4315H48.7472C48.6524 52.4315 48.5832 52.4058 48.5345 52.3495C48.4884 52.2957 48.4654 52.2291 48.4654 52.1522V51.7295L48.1707 51.9959C48.017 52.1343 47.8479 52.2496 47.6609 52.3469C47.4739 52.4417 47.2484 52.4904 46.982 52.4904C46.6566 52.4904 46.3799 52.3802 46.1519 52.1625C45.9213 51.9447 45.8086 51.5886 45.8086 51.1018V50.4664ZM46.7309 51.0224C46.7309 51.3016 46.7847 51.4887 46.8923 51.5835C46.9999 51.6757 47.1306 51.7218 47.2843 51.7218C47.4662 51.7218 47.6481 51.6552 47.83 51.5194C48.0119 51.3836 48.1579 51.2709 48.2655 51.1761L48.4654 50.9763V49.147H48.0529C47.6737 49.147 47.3586 49.2649 47.1075 49.5006C46.8564 49.7363 46.7309 50.0565 46.7309 50.4613V51.0224Z" fill="#EB7302"/>
<path d="M50.4074 51.8627C50.4074 51.7833 50.4278 51.7269 50.4663 51.6936C50.5047 51.6577 50.5585 51.6424 50.6225 51.6424H50.6584L50.702 51.6501C50.8839 51.6783 51.0504 51.7013 51.199 51.7167C51.345 51.7295 51.5064 51.7371 51.6832 51.7371C51.9266 51.7371 52.1341 51.7038 52.3109 51.6347C52.4902 51.5655 52.5773 51.4348 52.5773 51.2427C52.5773 51.1043 52.5159 51.0018 52.3929 50.9327C52.2699 50.8635 52.1367 50.8123 51.9958 50.7764L51.3809 50.6381C51.0863 50.5638 50.8454 50.4408 50.661 50.2717C50.4765 50.1026 50.3843 49.8541 50.3843 49.5313C50.3843 49.1265 50.5559 48.8267 50.8941 48.6295C51.2349 48.4322 51.6473 48.3348 52.1341 48.3348C52.3314 48.3348 52.4979 48.3425 52.6286 48.3553C52.7618 48.3706 52.913 48.3937 53.0795 48.4219C53.1589 48.4321 53.2153 48.4603 53.2511 48.5039C53.2844 48.5474 53.3023 48.6089 53.3023 48.6884V48.9471C53.3023 49.0214 53.2844 49.0778 53.246 49.1162C53.2101 49.1546 53.1589 49.1751 53.0949 49.1751L53.0129 49.1649L52.9027 49.147C52.8002 49.1316 52.6824 49.1188 52.5517 49.106C52.4211 49.0932 52.2853 49.0881 52.1418 49.0881C51.9061 49.0881 51.7114 49.1214 51.5551 49.1854C51.4014 49.252 51.322 49.3699 51.322 49.5364C51.322 49.6748 51.3758 49.767 51.4783 49.8131C51.5807 49.8618 51.696 49.9002 51.8241 49.9361L52.3647 50.0616C52.6747 50.1359 52.9437 50.2538 53.1717 50.4152C53.4023 50.5791 53.515 50.8533 53.515 51.2427C53.515 51.7243 53.3254 52.0548 52.9437 52.2291C52.562 52.4033 52.1418 52.4904 51.6832 52.4904C51.4834 52.4904 51.304 52.4827 51.1452 52.4647C50.9889 52.4468 50.8198 52.4263 50.643 52.4033C50.5508 52.3879 50.4868 52.3572 50.456 52.3085C50.4227 52.2624 50.4074 52.2009 50.4074 52.1214V51.8627" fill="#EB7302"/>
<path d="M56.5356 49.147H56.1744C56.0745 49.147 56.0027 49.1188 55.9592 49.065C55.9156 49.0112 55.8926 48.942 55.8926 48.8575V48.673C55.8926 48.5936 55.9157 48.5296 55.9592 48.4732C56.0027 48.4194 56.0745 48.3938 56.1744 48.3938H57.1787C57.2709 48.3938 57.3427 48.4194 57.3888 48.4732C57.4349 48.5295 57.458 48.5936 57.458 48.673V52.1522C57.458 52.2291 57.4349 52.2957 57.3888 52.3495C57.3427 52.4058 57.2709 52.4314 57.1787 52.4314H56.8149C56.7175 52.4314 56.6458 52.4058 56.6022 52.3495C56.5587 52.2957 56.5356 52.2291 56.5356 52.1522V49.147ZM56.8149 47.72C56.7175 47.72 56.6458 47.6943 56.6022 47.6431C56.5587 47.5919 56.5356 47.5227 56.5356 47.4407V47.1743C56.5356 47.0974 56.5587 47.0282 56.6022 46.9744C56.6458 46.9207 56.7175 46.895 56.8149 46.895H57.1787C57.2709 46.895 57.3427 46.9207 57.3888 46.9744C57.4349 47.0282 57.458 47.0974 57.458 47.1743V47.4407C57.458 47.5227 57.4349 47.5919 57.3888 47.6431C57.3427 47.6943 57.2709 47.72 57.1787 47.72H56.8149Z" fill="#EB7302"/>
<path d="M58.6697 48.6731C58.6697 48.5936 58.6928 48.5296 58.7389 48.4732C58.785 48.4194 58.8567 48.3938 58.949 48.3938H59.3128C59.405 48.3938 59.4767 48.4194 59.5229 48.4732C59.569 48.5296 59.592 48.5936 59.592 48.6731V49.1316L59.8508 48.8652C59.9943 48.7192 60.1557 48.5911 60.3427 48.4886C60.5271 48.3861 60.7526 48.3349 61.0242 48.3349C61.3598 48.3349 61.6365 48.4297 61.8568 48.6167C62.0746 48.8063 62.1847 49.147 62.1847 49.6338V52.1522C62.1847 52.2291 62.1617 52.2957 62.1181 52.3495C62.0746 52.4058 62.0028 52.4315 61.9029 52.4315H61.5417C61.4443 52.4315 61.3726 52.4058 61.3265 52.3495C61.2829 52.2957 61.2624 52.2291 61.2624 52.1522V49.8106C61.2624 49.5313 61.2061 49.3417 61.0959 49.2444C60.9831 49.1496 60.855 49.1009 60.7064 49.1009C60.5348 49.1009 60.3683 49.1675 60.2043 49.2982C60.0429 49.4288 59.9071 49.5467 59.7995 49.6543L59.592 49.8618V52.1522C59.592 52.2291 59.5689 52.2957 59.5228 52.3495C59.4767 52.4058 59.405 52.4315 59.3127 52.4315H58.9489C58.8567 52.4315 58.785 52.4058 58.7389 52.3495C58.6927 52.2957 58.6697 52.2291 58.6697 52.1522V48.6731" fill="#EB7302"/>
<path d="M63.4401 49.147H63.1352C63.0379 49.147 62.9661 49.1188 62.9226 49.065C62.879 49.0112 62.856 48.9421 62.856 48.8575V48.673C62.856 48.5936 62.879 48.5296 62.9226 48.4732C62.9661 48.4194 63.0379 48.3938 63.1352 48.3938H63.4401V47.7123C63.4401 47.6354 63.4632 47.5688 63.5093 47.515C63.5554 47.4612 63.6246 47.433 63.7193 47.433H64.0806C64.1754 47.433 64.2445 47.4612 64.2932 47.515C64.3393 47.5688 64.3624 47.6354 64.3624 47.7123V48.3938H65.1669C65.2642 48.3938 65.3359 48.4194 65.3821 48.4732C65.4256 48.5295 65.4461 48.5936 65.4461 48.673V48.8575C65.4461 48.9421 65.4257 49.0112 65.3821 49.065C65.336 49.1188 65.2642 49.147 65.1669 49.147H64.3624V50.8302C64.3624 51.1633 64.4213 51.3887 64.5392 51.504C64.657 51.6219 64.862 51.6782 65.1515 51.6782H65.2847C65.3795 51.6782 65.4487 51.7064 65.4948 51.7602C65.5435 51.814 65.5665 51.8858 65.5665 51.9729V52.1522C65.5665 52.2291 65.5434 52.2957 65.4948 52.3495C65.4487 52.4058 65.3795 52.4315 65.2847 52.4315H64.8927C64.4367 52.4315 64.078 52.3162 63.8244 52.0856C63.5682 51.8525 63.4401 51.4887 63.4401 50.9916V49.147Z" fill="#EB7302"/>
<path d="M66.1404 50.0693C66.1404 49.498 66.3274 49.065 66.7015 48.773C67.0781 48.4809 67.529 48.3349 68.0619 48.3349C68.4898 48.3349 68.8561 48.4271 69.1584 48.6141C69.4607 48.8011 69.6119 49.1086 69.6119 49.5364C69.6119 49.9207 69.494 50.2102 69.2609 50.4049C69.0278 50.5997 68.7024 50.697 68.2899 50.697H67.0627V50.8738C67.0627 51.1787 67.1601 51.3964 67.3522 51.5271C67.5444 51.6578 67.7724 51.7218 68.0388 51.7218C68.2412 51.7218 68.4257 51.7039 68.5922 51.668C68.7588 51.6321 68.9074 51.5963 69.0355 51.5681L69.0918 51.5579L69.1379 51.5526L69.2609 51.6038C69.2916 51.6397 69.3095 51.6884 69.3095 51.7524V51.9805C69.3095 52.0701 69.2942 52.1419 69.266 52.1982C69.2352 52.2546 69.1814 52.293 69.102 52.3135C68.9791 52.3494 68.8176 52.3852 68.6178 52.4288C68.4205 52.4698 68.2156 52.4903 68.0106 52.4903C67.4829 52.4903 67.0396 52.3647 66.681 52.1111C66.3197 51.8574 66.1404 51.4398 66.1404 50.8583L66.1404 50.0693ZM67.0627 50.1359H68.0542C68.3053 50.1359 68.4769 50.0898 68.5743 49.9976C68.6691 49.9079 68.7178 49.7773 68.7178 49.603C68.7178 49.416 68.6537 49.2854 68.5231 49.2136C68.3924 49.1393 68.2284 49.1009 68.0312 49.1009C67.7314 49.1009 67.4957 49.1803 67.3215 49.3392C67.1498 49.4954 67.0627 49.744 67.0627 50.0847V50.1359" fill="#EB7302"/>
<path d="M70.542 47.6482H70.1807C70.086 47.6482 70.0168 47.62 69.9707 47.5663C69.922 47.5125 69.8989 47.4433 69.8989 47.3587V47.1743C69.8989 47.0974 69.922 47.0282 69.9707 46.9744C70.0168 46.9207 70.086 46.895 70.1807 46.895H71.185C71.2773 46.895 71.349 46.9207 71.3951 46.9744C71.4412 47.0282 71.4643 47.0974 71.4643 47.1743V52.1522C71.4643 52.2291 71.4412 52.2957 71.3951 52.3495C71.349 52.4058 71.2773 52.4314 71.185 52.4314H70.8238C70.729 52.4314 70.6598 52.4058 70.6137 52.3495C70.5651 52.2957 70.542 52.2291 70.542 52.1522V47.6482Z" fill="#EB7302"/>
<path d="M72.7939 49.147H72.4327C72.3328 49.147 72.261 49.1188 72.2175 49.065C72.1739 49.0112 72.1509 48.942 72.1509 48.8575V48.673C72.1509 48.5936 72.174 48.5296 72.2175 48.4732C72.261 48.4194 72.3328 48.3938 72.4327 48.3938H73.437C73.5292 48.3938 73.601 48.4194 73.6471 48.4732C73.6932 48.5295 73.7162 48.5936 73.7162 48.673V52.1522C73.7162 52.2291 73.6932 52.2957 73.6471 52.3495C73.601 52.4058 73.5292 52.4314 73.437 52.4314H73.0758C72.9758 52.4314 72.9041 52.4058 72.8605 52.3495C72.817 52.2957 72.7939 52.2291 72.7939 52.1522V49.147ZM73.0758 47.72C72.9758 47.72 72.9041 47.6943 72.8605 47.6431C72.817 47.5919 72.7939 47.5227 72.7939 47.4407V47.1743C72.7939 47.0974 72.817 47.0282 72.8605 46.9744C72.9041 46.9207 72.9758 46.895 73.0758 46.895H73.437C73.5292 46.895 73.601 46.9207 73.6471 46.9744C73.6932 47.0282 73.7162 47.0974 73.7162 47.1743V47.4407C73.7162 47.5227 73.6932 47.5919 73.6471 47.6431C73.601 47.6943 73.5292 47.72 73.437 47.72H73.0758Z" fill="#EB7302"/>
<path d="M75.9015 53.0668C76.4088 53.0668 76.7828 52.9874 77.0211 52.8311C77.2594 52.6723 77.3798 52.37 77.3798 51.9216V51.7884L77.2235 51.8781C77.0621 51.9678 76.8853 52.0421 76.6957 52.1061C76.5061 52.1702 76.2781 52.2035 76.0117 52.2035C75.6351 52.2035 75.32 52.0805 75.0714 51.8345C74.8229 51.5886 74.7 51.2222 74.7 50.7329V50.4152C74.7 49.767 74.8998 49.2674 75.2995 48.9164C75.7017 48.568 76.1833 48.3938 76.7444 48.3938H78.0151C78.1125 48.3938 78.1842 48.4194 78.2304 48.4732C78.279 48.5296 78.3021 48.5936 78.3021 48.6731V51.8986C78.3021 52.5647 78.1074 53.0515 77.7231 53.3589C77.3362 53.6663 76.8085 53.8201 76.1372 53.8201H75.3917C75.2943 53.8201 75.2226 53.7919 75.1739 53.7381C75.1278 53.6843 75.1047 53.6151 75.1047 53.5331V53.3538C75.1047 53.2718 75.1278 53.2026 75.1739 53.1488C75.2226 53.0925 75.2943 53.0668 75.3917 53.0668H75.9015ZM76.8546 49.147C76.4703 49.147 76.168 49.2572 75.9502 49.4826C75.7299 49.7055 75.6223 50.0232 75.6223 50.4306V50.674C75.6223 50.9404 75.6786 51.1325 75.7914 51.253C75.9041 51.3734 76.0655 51.4349 76.2704 51.4349C76.4523 51.4349 76.624 51.4092 76.7803 51.3606C76.9391 51.3119 77.0877 51.2555 77.2312 51.1915L77.3798 51.1249V49.147H76.8546Z" fill="#EB7302"/>
<path d="M79.2552 50.0693C79.2552 49.498 79.4422 49.065 79.8162 48.773C80.1903 48.4809 80.6412 48.3349 81.1741 48.3349C81.6019 48.3349 81.9683 48.4271 82.2706 48.6141C82.5729 48.8011 82.7241 49.1086 82.7241 49.5364C82.7241 49.9207 82.6088 50.2102 82.3731 50.4049C82.14 50.5997 81.8171 50.697 81.4021 50.697H80.1775V50.8738C80.1775 51.1787 80.2723 51.3964 80.4644 51.5271C80.6566 51.6578 80.8871 51.7218 81.151 51.7218C81.3534 51.7218 81.5379 51.7039 81.707 51.668C81.8735 51.6321 82.0221 51.5963 82.1476 51.5681L82.204 51.5579L82.2526 51.5526L82.3731 51.6038C82.4064 51.6397 82.4217 51.6884 82.4217 51.7524V51.9805C82.4217 52.0701 82.4064 52.1419 82.3782 52.1982C82.3474 52.2546 82.2936 52.293 82.2142 52.3135C82.0912 52.3494 81.9298 52.3852 81.7326 52.4288C81.5327 52.4698 81.3278 52.4903 81.1228 52.4903C80.595 52.4903 80.1518 52.3647 79.7931 52.1111C79.4345 51.8574 79.2551 51.4398 79.2551 50.8583L79.2552 50.0693ZM80.1775 50.1359H81.1664C81.4175 50.1359 81.5917 50.0898 81.6865 49.9976C81.7838 49.9079 81.83 49.7773 81.83 49.603C81.83 49.416 81.7659 49.2854 81.6352 49.2136C81.5046 49.1393 81.3406 49.1009 81.1433 49.1009C80.8436 49.1009 80.6079 49.1803 80.4362 49.3392C80.262 49.4954 80.1775 49.744 80.1775 50.0847V50.1359" fill="#EB7302"/>
<path d="M83.6182 48.6731C83.6182 48.5936 83.6412 48.5296 83.6873 48.4732C83.7334 48.4194 83.8052 48.3938 83.9 48.3938H84.2612C84.3535 48.3938 84.4252 48.4194 84.4713 48.4732C84.5174 48.5296 84.5405 48.5936 84.5405 48.6731V49.1316L84.7992 48.8652C84.9427 48.7192 85.1041 48.5911 85.2911 48.4886C85.4756 48.3861 85.7036 48.3349 85.9726 48.3349C86.3082 48.3349 86.5849 48.4297 86.8053 48.6167C87.023 48.8063 87.1332 49.147 87.1332 49.6338V52.1522C87.1332 52.2291 87.1101 52.2957 87.0666 52.3495C87.023 52.4058 86.9513 52.4315 86.8514 52.4315H86.4901C86.3902 52.4315 86.3211 52.4058 86.2775 52.3495C86.2314 52.2957 86.2109 52.2291 86.2109 52.1522V49.8106C86.2109 49.5313 86.1545 49.3417 86.0444 49.2444C85.9342 49.1496 85.8035 49.1009 85.6549 49.1009C85.4833 49.1009 85.3168 49.1675 85.1528 49.2982C84.9914 49.4288 84.8556 49.5467 84.748 49.6543L84.5405 49.8618V52.1522C84.5405 52.2291 84.5174 52.2957 84.4713 52.3495C84.4252 52.4058 84.3535 52.4315 84.2612 52.4315H83.9C83.8052 52.4315 83.7335 52.4058 83.6873 52.3495C83.6412 52.2957 83.6182 52.2291 83.6182 52.1522V48.6731Z" fill="#EB7302"/>
<path d="M88.3886 49.147H88.0837C87.9863 49.147 87.9146 49.1188 87.8711 49.065C87.8275 49.0112 87.8044 48.9421 87.8044 48.8575V48.673C87.8044 48.5936 87.8275 48.5296 87.8711 48.4732C87.9146 48.4194 87.9863 48.3938 88.0837 48.3938H88.3886V47.7123C88.3886 47.6354 88.4117 47.5688 88.4577 47.515C88.5039 47.4612 88.5756 47.433 88.6678 47.433H89.0291C89.1239 47.433 89.193 47.4612 89.2417 47.515C89.2878 47.5688 89.3109 47.6354 89.3109 47.7123V48.3938H90.1153C90.2127 48.3938 90.2844 48.4194 90.3306 48.4732C90.3741 48.5295 90.3972 48.5936 90.3972 48.673V48.8575C90.3972 48.9421 90.3741 49.0112 90.3306 49.065C90.2844 49.1188 90.2127 49.147 90.1153 49.147H89.3109V50.8302C89.3109 51.1633 89.3698 51.3887 89.4877 51.504C89.6055 51.6219 89.8105 51.6782 90.1 51.6782H90.2332C90.3254 51.6782 90.3972 51.7064 90.4433 51.7602C90.4894 51.814 90.515 51.8858 90.515 51.9729V52.1522C90.515 52.2291 90.4894 52.2957 90.4433 52.3495C90.3972 52.4058 90.3254 52.4315 90.2332 52.4315H89.8412C89.3852 52.4315 89.0265 52.3162 88.7729 52.0856C88.5167 51.8525 88.3886 51.4887 88.3886 50.9916V49.147Z" fill="#EB7302"/>
<path d="M91.0889 50.0693C91.0889 49.498 91.2759 49.065 91.6525 48.773C92.0266 48.4809 92.4775 48.3349 93.0104 48.3349C93.4382 48.3349 93.8046 48.4271 94.1069 48.6141C94.4092 48.8011 94.5604 49.1086 94.5604 49.5364C94.5604 49.9207 94.4425 50.2102 94.2094 50.4049C93.9763 50.5997 93.6509 50.697 93.2384 50.697H92.0112V50.8738C92.0112 51.1787 92.1086 51.3964 92.3007 51.5271C92.4929 51.6578 92.7209 51.7218 92.9873 51.7218C93.1897 51.7218 93.3742 51.7039 93.5407 51.668C93.7072 51.6321 93.8558 51.5963 93.9839 51.5681L94.0403 51.5579L94.0864 51.5526L94.2094 51.6038C94.2401 51.6397 94.258 51.6884 94.258 51.7524V51.9805C94.258 52.0701 94.2427 52.1419 94.2119 52.1982C94.1837 52.2546 94.1299 52.293 94.0505 52.3135C93.9275 52.3494 93.7661 52.3852 93.5663 52.4288C93.369 52.4698 93.1641 52.4903 92.9591 52.4903C92.4313 52.4903 91.9881 52.3647 91.6294 52.1111C91.2682 51.8574 91.0889 51.4398 91.0889 50.8583L91.0889 50.0693ZM92.0112 50.1359H93.0027C93.2538 50.1359 93.4254 50.0898 93.5228 49.9976C93.6176 49.9079 93.6663 49.7773 93.6663 49.603C93.6663 49.416 93.6022 49.2854 93.4715 49.2136C93.3409 49.1393 93.1769 49.1009 92.9796 49.1009C92.6799 49.1009 92.4442 49.1803 92.2725 49.3392C92.0983 49.4954 92.0112 49.744 92.0112 50.0847V50.1359" fill="#EB7302"/>
<path d="M95.2983 51.8627C95.2983 51.7833 95.3188 51.7269 95.3572 51.6936C95.3957 51.6577 95.4495 51.6424 95.5135 51.6424H95.5494L95.593 51.6501C95.7774 51.6783 95.9414 51.7013 96.0874 51.7167C96.236 51.7295 96.4 51.7371 96.5768 51.7371C96.8176 51.7371 97.0251 51.7038 97.2044 51.6347C97.3812 51.5655 97.4709 51.4348 97.4709 51.2427C97.4709 51.1043 97.4068 51.0018 97.2838 50.9327C97.1609 50.8635 97.0302 50.8123 96.8867 50.7764L96.2719 50.6381C95.9772 50.5638 95.7364 50.4408 95.5545 50.2717C95.3701 50.1026 95.2778 49.8541 95.2778 49.5313C95.2778 49.1265 95.4469 48.8267 95.7851 48.6295C96.1258 48.4322 96.5383 48.3348 97.0251 48.3348C97.2224 48.3348 97.3889 48.3425 97.5221 48.3553C97.6528 48.3706 97.8039 48.3937 97.9705 48.4219C98.0499 48.4321 98.1062 48.4603 98.1421 48.5039C98.1754 48.5474 98.1933 48.6089 98.1933 48.6884V48.9471C98.1933 49.0214 98.1754 49.0778 98.137 49.1162C98.1011 49.1546 98.0499 49.1751 97.9858 49.1751L97.9039 49.1649L97.7937 49.147C97.6912 49.1316 97.5734 49.1188 97.4427 49.106C97.312 49.0932 97.1763 49.0881 97.0328 49.0881C96.7971 49.0881 96.6024 49.1214 96.4461 49.1854C96.2924 49.252 96.213 49.3699 96.213 49.5364C96.213 49.6748 96.2667 49.767 96.3692 49.8131C96.4717 49.8618 96.5896 49.9002 96.7151 49.9361L97.2557 50.0616C97.5657 50.1359 97.8347 50.2538 98.0653 50.4152C98.2933 50.5791 98.406 50.8533 98.406 51.2427C98.406 51.7243 98.2164 52.0548 97.8347 52.2291C97.453 52.4033 97.0328 52.4904 96.5768 52.4904C96.3744 52.4904 96.195 52.4827 96.0362 52.4647C95.8799 52.4468 95.7134 52.4263 95.534 52.4033C95.4418 52.3879 95.3777 52.3572 95.347 52.3085C95.3137 52.2624 95.2983 52.2009 95.2983 52.1214V51.8627" fill="#EB7302"/>
<path d="M52.1726 41.4918C63.5811 41.4918 72.8272 32.2431 72.8272 20.8371C72.8272 9.42867 63.5811 0.179932 52.1726 0.179932C42.4525 0.179932 34.3028 6.89231 32.1021 15.9335C31.9945 16.3793 31.5948 16.6919 31.1362 16.6919H22.0745C21.5237 16.6919 21.0805 17.1376 21.0805 17.6859V23.9423C21.0805 24.4905 21.5237 24.9363 22.0745 24.9363H28.359C28.9073 24.9363 29.3531 25.3795 29.3531 25.9304V29.6939C29.3531 29.9911 29.2199 30.2729 28.9893 30.4625C26.8449 32.2149 24.1087 33.2704 21.124 33.2704C14.2579 33.2704 8.69074 27.7032 8.69074 20.8371C8.69074 13.971 14.2579 8.40388 21.124 8.40388C23.0711 8.40388 24.9132 8.85222 26.5554 9.65156C27.0191 9.87701 27.5776 9.71046 27.8441 9.2647L31.0363 3.89223C31.1772 3.65653 31.2131 3.37472 31.1388 3.11083C31.0619 2.84695 30.8826 2.62662 30.6392 2.50109C27.7928 1.02026 24.5571 0.179932 21.124 0.179932C9.71553 0.179932 0.466797 9.42867 0.466797 20.8371C0.466797 32.2431 9.71553 41.4918 21.124 41.4918C26.9346 41.4918 32.1815 39.0938 35.9348 35.2329C36.1218 35.0407 36.378 34.9306 36.647 34.9306C36.916 34.9306 37.1722 35.0407 37.3592 35.2329C41.1151 39.0938 46.362 41.4918 52.1726 41.4918ZM52.1726 33.2704C45.3065 33.2704 39.7393 27.7032 39.7393 20.8371C39.7393 13.971 45.3065 8.40388 52.1726 8.40388C59.0387 8.40388 64.6033 13.971 64.6033 20.8371C64.6033 27.7032 59.0387 33.2704 52.1726 33.2704Z" fill="#EB7302"/>
<path d="M86.2827 16.861C84.4278 7.35602 76.0578 0.179932 66.0098 0.179932C63.581 0.179932 61.2547 0.600099 59.0899 1.36869C63.0712 2.78546 66.4914 5.38586 68.9202 8.74974C74.3823 10.0615 78.443 14.9728 78.443 20.8371C78.443 27.7032 72.8758 33.2704 66.0098 33.2704C59.1437 33.2704 53.5765 27.7032 53.5765 20.8371C53.5765 16.533 55.7644 12.7387 59.0873 10.5073C57.112 9.18015 54.7319 8.40388 52.1725 8.40388C51.1682 8.40388 50.1947 8.52429 49.2596 8.74718C46.8026 12.1469 45.3525 16.3229 45.3525 20.8371C45.3525 32.2431 54.6013 41.4918 66.0098 41.4918C76.0578 41.4918 84.4278 34.3183 86.2827 24.8108V16.861Z" fill="#B0B0B3"/>
<path d="M87.6456 32.7503C87.0973 32.7503 86.6541 32.3071 86.6541 31.7563V1.81961C86.6541 1.27135 86.2083 0.825562 85.6601 0.825562H79.4242C78.8734 0.825562 78.4302 1.27135 78.4302 1.81961V39.9802C78.4302 40.5285 78.8734 40.9743 79.4242 40.9743H100.32C100.868 40.9743 101.311 40.5285 101.311 39.9802V33.7444C101.311 33.1961 100.868 32.7503 100.32 32.7503H87.6456Z" fill="#EB7302"/>
</svg>
