<svg width="60" height="60" viewBox="0 0 60 60" fill="none" xmlns="http://www.w3.org/2000/svg">
<path d="M35.1136 26.8167C36.7042 26.8167 37.9936 25.5047 37.9936 23.8863C37.9936 22.2678 36.7042 20.9558 35.1136 20.9558C33.5231 20.9558 32.2336 22.2678 32.2336 23.8863C32.2336 25.5047 33.5231 26.8167 35.1136 26.8167Z" fill="#8C98A4"/>
<path fill-rule="evenodd" clip-rule="evenodd" d="M0.520303 30.0116C1.27754 47.9926 18.9988 55.0123 18.9988 55.0123C26.5354 58.4599 31.6795 58.7955 36.458 59.2167C44.5067 59.6892 47.317 56.5107 45.1914 48.7213C44.9105 47.1585 44.7138 45.5831 44.7138 45.5831C43.7171 42.2242 44.2075 36.9721 44.2075 36.9721C44.2075 32.5258 52.0893 27.7765 52.0893 27.7765C64.2153 18.0756 57.3193 8.75323 57.3193 8.75323C48.0193 -3.52515 22.545 -0.441093 10.5272 9.54884C8.22753 11.4604 7.14616 12.7741 5.51997 14.7189C2.25786 18.62 0.319679 25.2475 0.520303 30.0116ZM21.1678 34.8502C31.4746 34.7314 33.0577 51.9774 21.3699 52.332C9.54756 51.4407 11.8043 35.0032 21.1678 34.8502ZM34.6075 52.4331C30.3948 51.4083 31.3043 35.0717 34.6075 34.9513C38.5492 34.5795 39.0041 51.977 34.6075 52.4331ZM34.6834 26.9428C36.2739 26.9428 37.5634 28.2548 37.5634 29.8733C37.5634 31.4919 36.2739 32.8038 34.6834 32.8038C33.0928 32.8038 31.8034 31.4919 31.8034 29.8733C31.8034 28.2548 33.0928 26.9428 34.6834 26.9428Z" fill="#FDB813"/>
<path fill-rule="evenodd" clip-rule="evenodd" d="M21.1168 39.237C16.9736 39.4102 16.519 48.4208 21.2684 48.4327C25.9511 48.5037 26.1026 38.988 21.1168 39.237Z" fill="#FDB813"/>
</svg>
