<svg width="102" height="58" viewBox="0 0 102 58" fill="none" xmlns="http://www.w3.org/2000/svg">
<path fill-rule="evenodd" clip-rule="evenodd" d="M0.197341 25.3515C-0.356135 19.2709 5.05217 13.5571 15.3108 9.07257C14.5747 10.118 14.4523 10.9156 14.1447 12.0809C10.2743 30.76 44.0039 42.4329 61.6967 41.3883C51.5006 44.3992 2.84051 44.2743 0.197341 25.3515Z" fill="#E0561E"/>
<path fill-rule="evenodd" clip-rule="evenodd" d="M101.139 17.857C101.695 23.9377 96.2863 29.6546 86.028 34.1392C86.7649 33.0922 86.8856 32.2953 87.1949 31.1276C91.0632 12.451 57.3361 0.775635 39.6396 1.82264C49.8397 -1.1873 98.4994 -1.06662 101.139 17.857Z" fill="#E0561E"/>
<path fill-rule="evenodd" clip-rule="evenodd" d="M74.5986 18.2263H70.0558L68.3989 27.7428H72.8187L74.5986 18.2263Z" fill="#263B7C"/>
<path fill-rule="evenodd" clip-rule="evenodd" d="M75.3975 14.1757C75.3975 13.008 74.4767 12.2096 73.3706 12.2096C71.8369 12.2096 70.5469 13.4988 70.5469 15.0949C70.5469 16.1994 71.3437 16.9994 72.4499 16.9994C74.05 16.9994 75.3975 15.7095 75.3975 14.1757Z" fill="#263B7C"/>
<path fill-rule="evenodd" clip-rule="evenodd" d="M67.91 20.6816C67.91 18.7778 66.4362 17.9186 64.6547 17.9186C63.4262 17.9186 62.5055 18.3502 62.1355 18.717L61.8301 18.2263H57.5942L55.875 27.7429H60.4163C60.4163 27.7429 61.6144 21.7142 61.7262 21.0164C61.7414 20.9221 61.759 20.8334 61.779 20.7479C61.9085 20.2092 62.3241 19.8847 62.7996 19.8847C63.2208 19.8847 63.5653 20.2588 63.4886 20.7487C63.4694 20.8718 63.4566 21.0021 63.4566 21.0021L62.1986 27.7429H66.7423L67.8468 21.4201C67.91 21.1115 67.91 20.8046 67.91 20.6816Z" fill="#263B7C"/>
<path fill-rule="evenodd" clip-rule="evenodd" d="M55.569 20.5593C55.569 20.8046 55.5075 21.1115 55.5075 21.4201L54.4642 27.7429H50.2279L51.3334 21.233C51.3334 21.233 51.3799 21.0164 51.3852 20.7487C51.3971 20.1756 51.1492 19.8847 50.7187 19.8847C50.1664 19.8847 49.6756 20.3131 49.491 21.5399L48.3859 27.7429H44.2742L45.4393 21.233C45.4393 21.1115 45.5002 20.867 45.5002 20.7423C45.5002 20.1293 45.256 19.8847 44.7021 19.8847C44.1512 19.8847 43.7843 20.3738 43.5966 21.5399L42.4309 27.7429H38.3188L39.9751 18.2263H43.9656L44.2126 18.717C44.5807 18.3502 45.5002 17.9186 46.6656 17.9186C47.8948 17.9186 48.7561 18.2886 49.3069 19.0855C50.2279 18.3502 51.3334 17.9186 52.6225 17.9186C54.2815 17.9186 55.5075 18.717 55.569 20.5593Z" fill="#263B7C"/>
<path fill-rule="evenodd" clip-rule="evenodd" d="M33.1484 21.0164C32.6118 23.956 31.377 26.3857 29.057 26.3857C27.2621 26.3857 26.6717 24.5459 27.1366 21.0164C27.7054 16.6981 29.9926 15.2443 31.4963 15.4873C33.4122 15.7974 33.7017 17.9857 33.1484 21.0164ZM31.2518 13.9607C23.7374 13.9607 22.3824 19.4307 22.1323 21.07C21.4114 25.1189 23.9162 27.9099 28.7738 27.9898C31.2521 27.9898 37.0487 27.4447 38.2271 21.018C38.5158 18.713 38.7659 13.9607 31.2518 13.9607Z" fill="#263B7C"/>
<path d="M3.43998 55.7212C4.47963 55.7212 4.9738 55.1121 4.9738 54.2514C4.9738 53.3887 4.44151 52.7806 3.37724 52.7806H1.5015V55.7212H3.43998ZM3.22546 51.641C4.02343 51.641 4.40306 51.1974 4.40306 50.5508C4.40306 49.9048 4.03629 49.4615 3.19989 49.4615H1.5015V51.641H3.22546ZM0.158691 48.2826H3.2882C4.89732 48.2826 5.72093 49.2583 5.72093 50.4494C5.72093 51.2732 5.30317 51.8558 4.55516 52.1093C5.70814 52.3753 6.31725 53.1996 6.31725 54.3016C6.31725 55.7843 5.32883 56.9001 3.51647 56.9001H0.158691V48.2826Z" fill="#263B7C"/>
<path d="M9.49537 54.6182C8.93782 54.6182 8.57033 54.8211 8.57033 55.2904C8.57033 55.7459 8.92503 55.9872 9.58409 55.9872C10.3315 55.9872 10.8638 55.6194 10.8638 55.0369V54.6182H9.49537ZM9.79948 52.528C9.10262 52.528 8.69741 52.8318 8.40521 53.1611L7.67054 52.4131C8.13946 51.8558 8.77325 51.4634 9.90067 51.4634C11.1807 51.4634 12.1435 52.1853 12.1435 53.7566V56.9001H10.8638L10.9022 56.1383C10.5216 56.709 10.0146 57.0135 9.22906 57.0135C8.17758 57.0135 7.31592 56.5195 7.31592 55.3279C7.31592 54.2258 8.20348 53.7438 9.40673 53.7319H10.8637C10.8637 52.882 10.4832 52.528 9.79948 52.528Z" fill="#263B7C"/>
<path d="M13.7139 51.577H14.9932L14.968 52.5658C15.2973 51.8687 15.9688 51.4634 16.7675 51.4634C17.9461 51.4634 18.7568 52.2995 18.7568 53.7438V56.9001H17.4774V53.8452C17.4774 53.0853 17.1222 52.6407 16.3748 52.6407C15.5387 52.6407 14.9932 53.1483 14.9932 54.0101V56.9001H13.7139V51.577Z" fill="#263B7C"/>
<path d="M20.0605 54.2386C20.0605 52.6545 21.2766 51.4634 22.8985 51.4634C23.9 51.4634 24.5463 51.843 25.0533 52.4771L24.1404 53.2114C23.8872 52.844 23.4439 52.5914 22.8985 52.5914C21.9484 52.5914 21.3787 53.2882 21.3787 54.2386C21.3787 55.189 21.9484 55.8857 22.8985 55.8857C23.5322 55.8857 23.9125 55.6194 24.2041 55.2904L25.0786 56.0503C24.5588 56.6457 23.9253 57.0135 22.8985 57.0135C21.2766 57.0135 20.0605 55.8355 20.0605 54.2386Z" fill="#263B7C"/>
<path d="M30.3871 54.2386C30.3871 53.2626 29.7917 52.5777 28.8413 52.5777C27.8913 52.5777 27.2831 53.2626 27.2831 54.2386C27.2831 55.2136 27.8913 55.9104 28.8413 55.9104C29.7917 55.9104 30.3871 55.2136 30.3871 54.2386ZM25.9653 54.2386C25.9653 52.6545 27.2319 51.4634 28.8413 51.4634C30.4635 51.4634 31.7048 52.6545 31.7048 54.2386C31.7048 55.8218 30.4635 57.0135 28.8413 57.0135C27.2319 57.0135 25.9653 55.8218 25.9653 54.2386Z" fill="#263B7C"/>
<path d="M39.927 50.056C39.927 49.5493 39.5849 49.2337 39.1032 49.2337C38.6086 49.2337 38.254 49.5621 38.254 50.0697C38.254 50.5124 38.4569 50.8297 38.7357 51.1728L38.8746 51.3373C39.5721 50.9432 39.927 50.5636 39.927 50.056ZM38.3804 52.6673C37.4556 53.1483 37.0245 53.6685 37.0245 54.479C37.0245 55.3407 37.5824 55.8474 38.6716 55.8474C39.3435 55.8474 39.9517 55.6194 40.4328 55.189L38.3804 52.6673ZM41.1683 54.1499C41.3841 53.6304 41.5105 53.0085 41.5105 52.2739H42.7137C42.7137 53.4025 42.4353 54.3775 41.9795 55.1377L43.4112 56.9001H41.8271L41.1683 56.0887C40.484 56.6841 39.622 57.0135 38.6716 57.0135C36.7716 57.0135 35.6436 56.0119 35.6436 54.5676C35.6436 53.2379 36.4163 52.5777 37.7472 51.8942C37.2402 51.2732 37.0245 50.6907 37.0245 50.0816C37.0245 49.0307 37.8106 48.1812 39.0778 48.1812C40.3063 48.1812 41.1047 48.9539 41.1047 50.056C41.1047 50.893 40.5605 51.5652 39.5208 52.1221L41.1683 54.1499Z" fill="#263B7C"/>
<path d="M47.6152 48.2826H52.9754V49.4615H48.9576V52.9205H52.6076V54.1115H48.9576V56.9001H47.6152V48.2826Z" fill="#263B7C"/>
<path d="M54.3289 51.577H55.6214V56.9001H54.3289V51.577ZM54.126 49.5118C54.126 49.0307 54.519 48.6757 54.9752 48.6757C55.4312 48.6757 55.8244 49.0307 55.8244 49.5118C55.8244 50.0185 55.4312 50.3613 54.9752 50.3613C54.519 50.3613 54.126 50.0185 54.126 49.5118Z" fill="#263B7C"/>
<path d="M57.2808 51.577H58.5603L58.5348 52.5658C58.8649 51.8687 59.5362 51.4634 60.3347 51.4634C61.5135 51.4634 62.324 52.2995 62.324 53.7438V56.9001H61.0444V53.8452C61.0444 53.0853 60.6895 52.6407 59.9422 52.6407C59.1054 52.6407 58.5603 53.1483 58.5603 54.0101V56.9001H57.2808V51.577" fill="#263B7C"/>
<path d="M65.744 54.6182C65.1861 54.6182 64.8185 54.8211 64.8185 55.2904C64.8185 55.7459 65.1733 55.9872 65.8319 55.9872C66.58 55.9872 67.1123 55.6194 67.1123 55.0369V54.6182H65.744ZM66.0477 52.528C65.3508 52.528 64.9455 52.8318 64.653 53.1611L63.9185 52.4131C64.3877 51.8558 65.0215 51.4634 66.1484 51.4634C67.4288 51.4634 68.3919 52.1853 68.3919 53.7566V56.9001H67.1123L67.1499 56.1383C66.7694 56.709 66.2627 57.0135 65.477 57.0135C64.426 57.0135 63.5645 56.5195 63.5645 55.3279C63.5645 54.2258 64.4516 53.7438 65.6545 53.7319H67.1123C67.1123 52.882 66.7318 52.528 66.0477 52.528" fill="#263B7C"/>
<path d="M69.9614 51.577H71.2418L71.2162 52.5658C71.5455 51.8687 72.2169 51.4634 73.0153 51.4634C74.1942 51.4634 75.0054 52.2995 75.0054 53.7438V56.9001H73.7251V53.8452C73.7251 53.0853 73.3702 52.6407 72.6229 52.6407C71.7869 52.6407 71.2418 53.1483 71.2418 54.0101V56.9001H69.9614V51.577" fill="#263B7C"/>
<path d="M76.3091 54.2386C76.3091 52.6545 77.5255 51.4634 79.148 51.4634C80.1486 51.4634 80.7952 51.843 81.3019 52.4771L80.3892 53.2114C80.1358 52.844 79.6931 52.5914 79.148 52.5914C78.1977 52.5914 77.627 53.2882 77.627 54.2386C77.627 55.189 78.1977 55.8857 79.148 55.8857C79.781 55.8857 80.1614 55.6194 80.4523 55.2904L81.3275 56.0503C80.808 56.6457 80.1742 57.0135 79.148 57.0135C77.5255 57.0135 76.3091 55.8355 76.3091 54.2386Z" fill="#263B7C"/>
<path d="M86.5085 53.7821C86.395 53.0597 85.9514 52.528 85.0643 52.528C84.2403 52.528 83.6704 52.9839 83.5185 53.7821H86.5085ZM85.2033 55.937C85.9003 55.937 86.4078 55.6572 86.7115 55.3662L87.4588 56.1517C86.9649 56.6457 86.2807 57.0135 85.2161 57.0135C83.3915 57.0135 82.2134 55.8355 82.2134 54.2386C82.2134 52.6545 83.4546 51.4634 85.0515 51.4634C86.8634 51.4634 87.8904 52.8062 87.8009 54.6695H83.5185C83.6704 55.4422 84.2275 55.937 85.2033 55.937Z" fill="#263B7C"/>
<path d="M89.1937 51.577H90.4861V56.9001H89.1937V51.577ZM88.9907 49.5118C88.9907 49.0307 89.384 48.6757 89.8403 48.6757C90.2959 48.6757 90.6891 49.0307 90.6891 49.5118C90.6891 50.0185 90.2959 50.3613 89.8403 50.3613C89.384 50.3613 88.9907 50.0185 88.9907 49.5118Z" fill="#263B7C"/>
<path d="M92.1445 51.577H93.4241L93.4113 52.5777C93.7662 51.7416 94.3744 51.4756 94.9579 51.4756C95.3375 51.4756 95.6037 51.5652 95.8322 51.7041L95.4015 52.8574C95.1984 52.7559 94.9954 52.6791 94.7045 52.6791C93.9436 52.6791 93.4241 53.1237 93.4241 54.3144V56.9001H92.1445V51.577" fill="#263B7C"/>
<path d="M98.5306 54.6182C97.9727 54.6182 97.6051 54.8211 97.6051 55.2904C97.6051 55.7459 97.9599 55.9872 98.6185 55.9872C99.3666 55.9872 99.8989 55.6194 99.8989 55.0369V54.6182H98.5306ZM98.8343 52.528C98.1374 52.528 97.7321 52.8318 97.4404 53.1611L96.7059 52.4131C97.1743 51.8558 97.8081 51.4634 98.9358 51.4634C100.215 51.4634 101.178 52.1853 101.178 53.7566V56.9001H99.8989L99.9365 56.1383C99.556 56.709 99.0493 57.0135 98.2645 57.0135C97.2127 57.0135 96.3511 56.5195 96.3511 55.3279C96.3511 54.2258 97.2382 53.7438 98.4411 53.7319H99.8989C99.8989 52.882 99.5185 52.528 98.8343 52.528" fill="#263B7C"/>
</svg>
