<svg width="101" height="30" viewBox="0 0 101 30" fill="none" xmlns="http://www.w3.org/2000/svg">
<path d="M16.1883 3.29309C17.5717 4.085 18.6022 5.14406 19.2891 6.47027C19.9713 7.80125 20.3148 9.28011 20.3148 10.9116C20.3148 12.5432 19.9809 14.0459 19.3082 15.4103C18.6356 16.7794 17.6099 17.8766 16.2264 18.7067C14.843 19.5368 13.1256 19.9518 11.0743 19.9518H6.14152V28.7964H0.88916V2.10522H11.1124C13.116 2.10522 14.8048 2.50118 16.1883 3.29309ZM14.8668 10.9116C14.8668 9.67607 14.4995 8.72196 13.7601 8.04931C13.0206 7.37667 11.9186 7.04273 10.4445 7.04273H6.14152V15.0191H10.4445C13.388 15.0143 14.8668 13.6499 14.8668 10.9116Z" fill="#F27126"/>
<path d="M38.1755 10.3774C39.7164 11.7608 40.4845 13.9267 40.4845 16.8701V28.7916H36.1815L35.9048 26.6211C35.0365 27.4368 34.1015 28.0713 33.0997 28.515C32.0979 28.9634 30.9673 29.1876 29.7031 29.1876C27.7805 29.1876 26.2921 28.6438 25.2426 27.5513C24.1883 26.4589 23.6636 24.9657 23.6636 23.0718C23.6636 21.3592 24.2408 19.9805 25.4 18.9262C26.5593 17.8719 28.1479 17.2422 30.1754 17.0323L35.6233 16.4789C35.5184 15.1622 35.1081 14.1938 34.3973 13.5784C33.6865 12.963 32.6226 12.6529 31.201 12.6529C29.2546 12.6529 27.2796 12.9439 25.2808 13.5212V9.3374C27.5945 8.65521 29.7555 8.31173 31.7544 8.31173C34.4975 8.30696 36.6394 8.99392 38.1755 10.3774ZM30.6572 25.1231C31.4205 25.1231 32.2362 24.9609 33.1045 24.6317C33.9727 24.3026 34.8266 23.8207 35.671 23.191V19.9518L30.6572 20.5434C29.8653 20.6483 29.2499 20.8964 28.8014 21.2924C28.353 21.6883 28.1288 22.1988 28.1288 22.8332C28.1288 24.3598 28.9732 25.1231 30.6572 25.1231Z" fill="#F27126"/>
<path d="M66.7417 13.9123V27.413C64.0559 28.6247 61.0982 29.2305 57.859 29.2305C55.2256 29.2305 52.9644 28.6724 51.0705 27.5513C49.1766 26.435 47.7359 24.9132 46.7484 22.9907C45.7609 21.0681 45.2695 18.9119 45.2695 16.517V14.8998C45.2695 12.4001 45.8277 10.1436 46.9488 8.13044C48.0698 6.11727 49.6155 4.53822 51.5857 3.3933C53.5607 2.24837 55.7981 1.6759 58.2979 1.6759C59.5859 1.6759 60.7404 1.78086 61.7517 1.99076C62.7631 2.20066 63.9032 2.54414 65.1674 3.01643V7.75357C64.0082 7.35761 62.9348 7.07615 61.9473 6.90441C60.9598 6.73267 59.9008 6.6468 58.7702 6.6468C56.2942 6.6468 54.3097 7.37193 52.807 8.8174C51.309 10.2676 50.5553 12.3428 50.5553 15.0573V16.0066C50.5553 18.5875 51.247 20.6245 52.6305 22.1272C54.0139 23.6299 55.9651 24.3789 58.4935 24.3789C59.6241 24.3789 60.7547 24.2739 61.8901 24.064V18.492H56.9955V13.9123H66.7417Z" fill="#F27126"/>
<path d="M75.82 27.9854C74.3459 27.1315 73.2058 25.9675 72.4043 24.4934C71.6029 23.0193 71.2021 21.3496 71.2021 19.4795V18.4157C71.2021 16.5981 71.6029 14.9141 72.4043 13.3637C73.2058 11.8133 74.3507 10.5825 75.8391 9.67132C77.3275 8.76492 79.0306 8.30695 80.9531 8.30695C82.9281 8.30695 84.6503 8.73629 86.1244 9.59022C87.5985 10.4441 88.7386 11.6129 89.5401 13.0823C90.3415 14.5563 90.7423 16.226 90.7423 18.0961V19.1218C90.7423 20.9632 90.332 22.6615 89.5162 24.2167C88.7005 25.7719 87.5508 26.9979 86.0624 27.9091C84.574 28.8155 82.8709 29.2735 80.9484 29.2735C79.002 29.2687 77.2941 28.8393 75.82 27.9854ZM84.3688 23.129C85.1989 22.1415 85.6139 20.7914 85.6139 19.0836V18.4539C85.6139 16.7413 85.2132 15.4007 84.4118 14.4275C83.6103 13.4544 82.4845 12.9678 81.0342 12.9678C79.584 12.9678 78.4391 13.4687 77.5994 14.4657C76.7551 15.4675 76.3352 16.7937 76.3352 18.4539V19.0836C76.3352 20.8201 76.736 22.1749 77.5374 23.1481C78.3389 24.1213 79.479 24.6079 80.9531 24.6079C82.3986 24.6079 83.5388 24.1165 84.3688 23.129Z" fill="#F27126"/>
<path d="M95.6797 0.726562H100.889V28.7964H95.6797V0.726562Z" fill="#F27126"/>
</svg>
