<svg width="108" height="43" viewBox="0 0 108 43" fill="none" xmlns="http://www.w3.org/2000/svg">
<path d="M56.1465 5.21774C57.5603 5.21774 58.7096 4.06843 58.7096 2.65463C58.7096 1.24084 57.5603 0.0963383 56.1465 0.0963383C54.7327 0.0963383 53.5881 1.24084 53.5834 2.65463C53.5834 4.06843 54.7327 5.21774 56.1465 5.21774ZM66.3701 27.8144H66.3898C67.3756 27.8144 68.2508 27.5643 68.9289 27.2421C69.6117 26.9151 70.0926 26.54 70.3378 26.2034C70.4869 25.9822 70.5831 25.7177 70.5831 25.434C70.5831 25.2224 70.535 25.006 70.434 24.7896C70.1839 24.2943 69.655 24.0539 69.1885 24.0443C69.1023 24.0443 69.0154 24.0541 68.9337 24.073C68.6789 24.1452 68.5008 24.2317 68.323 24.2894C68.1403 24.352 67.9479 24.3952 67.6161 24.3952C67.0727 24.3952 66.7456 24.1836 66.5293 23.9672C66.4911 23.9239 66.159 23.5104 66.0339 22.991C65.832 22.135 65.8175 20.9136 65.8079 20.0576C65.8227 19.7451 65.8227 2.47659 65.8227 2.01013C65.8227 1.37056 65.4957 0.85601 65.0389 0.553061C64.582 0.240484 64.005 0.101027 63.4327 0.101027C62.8509 0.101027 62.2642 0.245298 61.8025 0.553061C61.3361 0.851195 60.9899 1.35132 60.9947 1.98128V22.4236C60.9947 23.5633 61.3169 24.9001 62.1632 25.9677C63.0048 27.0352 64.3801 27.8143 66.371 27.8143M76.2531 10.9786C77.4649 9.24741 78.7344 9.04063 79.3307 9.03581C80.3069 9.04561 81.2976 9.6802 81.5812 11.1998C81.6291 11.4547 81.6488 11.7047 81.6488 11.9451C81.6488 12.9935 81.2449 13.9024 80.639 14.5948C79.1915 16.201 77.1766 16.6578 75.0463 16.8838C75.0463 16.6963 75.0463 16.5039 75.0463 16.3116C75.0463 14.4361 75.3012 12.3202 76.2533 10.9786M73.0554 25.3666C74.6424 26.8717 76.8063 27.7902 79.5137 27.7902H79.526C80.9975 27.7902 82.3631 27.5354 83.3875 27.1122C83.8971 26.8958 84.3251 26.6409 84.6425 26.338C84.9551 26.035 85.1667 25.6647 85.1667 25.2512C85.1667 25.1886 85.1667 25.1213 85.147 25.054C85.0461 24.3519 84.4689 23.8758 83.8149 23.8903C83.6514 23.8903 83.4879 23.9143 83.3244 23.9672C82.5213 24.2221 81.7471 24.3615 80.7997 24.3615C80.5305 24.3615 80.2564 24.3517 79.9582 24.3279C77.9577 24.1692 76.7796 22.967 76.0679 21.7359C75.7168 21.1252 75.486 20.5097 75.3513 20.0384C75.2885 19.8316 75.2455 19.6489 75.2168 19.5095C77.9529 19.3941 80.3189 19.0767 82.555 17.8937C83.6995 17.2541 85.1133 16.2202 85.8443 14.7824C86.3011 13.8495 86.5415 12.7771 86.5415 11.8057C86.5415 11.498 86.5169 11.1998 86.4688 10.9209C86.0024 8.28568 83.5547 6.2852 79.7654 6.29481C77.13 6.29481 73.7398 7.33352 71.672 10.5314C70.8786 11.7769 69.811 14.1669 69.811 17.1868C69.811 17.9081 69.8738 18.6631 70.013 19.4469C70.4699 21.7744 71.4749 23.8566 73.057 25.3666M26.171 27.0449C26.6278 27.3575 27.205 27.4969 27.7772 27.4969C28.3591 27.4969 28.9457 27.3526 29.4121 27.0449C29.8738 26.7467 30.2201 26.2418 30.2153 25.6167C30.2153 25.6167 30.2153 14.4361 30.2153 14.3832C30.2436 13.5177 30.4749 12.3587 30.9895 11.4499C31.5089 10.5362 32.2541 9.89181 33.4276 9.88701C33.9662 9.89191 34.3364 10.0601 34.6393 10.3294C35.0914 10.7382 35.3559 11.421 35.4953 12.1135C35.6299 12.806 35.6444 13.4936 35.6444 13.8831C35.6444 13.9744 35.6444 25.2849 35.6444 25.5878C35.6444 26.237 35.9954 26.7515 36.4763 27.0497C36.9621 27.3575 37.5679 27.4969 38.1738 27.4969C38.7893 27.4969 39.4097 27.3526 39.905 27.0497C40.3907 26.7515 40.7658 26.2514 40.761 25.6167V14.3736C40.7942 13.5129 41.0254 12.3539 41.5352 11.4499C42.0594 10.5362 42.8047 9.89181 43.9733 9.88701C44.5119 9.89191 44.887 10.0601 45.1899 10.3294C45.6371 10.7382 45.9065 11.4258 46.0411 12.1183C46.1805 12.8108 46.195 13.4936 46.195 13.8831C46.195 13.9744 46.195 24.8665 46.195 25.5878C46.195 26.237 46.5508 26.7515 47.0316 27.0497C47.5126 27.3575 48.1233 27.4969 48.7292 27.4969C49.3447 27.4969 49.9651 27.3526 50.4556 27.0497C50.946 26.7515 51.3211 26.2514 51.3163 25.6167V14.5852C51.3163 11.7913 50.7681 9.70908 49.7439 8.3001C48.7147 6.89111 47.1953 6.20345 45.4063 6.20827C43.68 6.20827 42.3624 7.04019 41.4391 7.99234C40.8042 8.64633 40.3475 9.35323 40.0445 9.91106C39.6165 8.7906 39.0106 7.9154 38.2363 7.29988C37.3083 6.56412 36.1493 6.20827 34.8509 6.20827C32.6389 6.21317 31.1242 7.55954 30.1961 8.80022V8.68955C30.1961 8.04516 29.8738 7.53543 29.4169 7.23248C28.9602 6.9199 28.3879 6.78045 27.8157 6.78045C27.229 6.78045 26.6422 6.92472 26.1806 7.23248C25.7141 7.53063 25.3728 8.03075 25.3728 8.6607C25.3728 8.6607 25.3728 25.1213 25.3728 25.5877C25.3728 26.2273 25.6949 26.7419 26.1518 27.0448M57.7603 7.23248C57.3034 6.9199 56.7312 6.78045 56.1541 6.78045C55.5722 6.78045 54.9856 6.92472 54.5239 7.23248C54.0575 7.53063 53.716 8.03075 53.716 8.6607C53.716 8.6607 53.716 25.1213 53.716 25.5877C53.716 26.2273 54.0383 26.7419 54.4951 27.0448C54.9519 27.3574 55.529 27.4969 56.1012 27.4969C56.6831 27.4969 57.2698 27.3526 57.7314 27.0448C58.1979 26.7467 58.5441 26.2417 58.5393 25.6166C58.5393 25.6166 58.5393 9.15601 58.5393 8.68955C58.5393 8.04516 58.2171 7.53543 57.7603 7.23248ZM107.859 15.9605C107.839 15.8451 107.763 15.7489 107.652 15.7152C107.541 15.6817 107.421 15.7103 107.339 15.797C107.339 15.797 107.271 15.8739 107.128 16.0182C106.988 16.1624 106.772 16.3788 106.488 16.6481C105.916 17.1963 105.055 17.9802 103.915 18.9179C103.107 19.5863 102.155 20.3317 101.064 21.1299C101.039 20.8126 100.991 20.5144 100.924 20.2355C100.636 19.0622 99.948 18.1725 99.1113 17.4608C97.8466 16.3933 96.226 15.6912 94.8988 14.9266C94.2304 14.5419 93.6436 14.1476 93.2061 13.7051C92.7685 13.2579 92.4895 12.777 92.403 12.1807C92.3833 12.0702 92.3784 11.9547 92.3784 11.8393C92.3784 11.2238 92.614 10.5794 93.1141 10.0937C93.3834 9.83404 94.1864 9.30987 95.3214 9.30987C96.7303 9.30987 97.923 9.9254 98.5914 9.9254C99.3463 9.93976 100 9.49742 100.197 8.76647C100.236 8.62221 100.255 8.47314 100.255 8.32887C100.255 7.49695 99.5629 6.72273 98.6204 6.4871C98.6204 6.4871 97.7692 6.19856 95.9708 6.19856C93.4653 6.20346 91.4119 6.8189 89.9694 7.90089C88.5267 8.98287 87.7139 10.5409 87.7139 12.3298C87.7139 12.8203 87.7766 13.33 87.8968 13.8494C88.4401 16.0567 90.6137 17.254 92.619 18.3264C93.6288 18.8602 94.6146 19.3651 95.3503 19.9085C96.0957 20.4567 96.567 21.0242 96.668 21.6878C96.6828 21.8031 96.6914 21.9138 96.6914 22.0244C96.6914 22.6303 96.4462 23.1929 95.9268 23.6305C95.4027 24.0681 94.5755 24.3759 93.407 24.3951H93.2962C92.0218 24.4 90.9302 24.0297 90.2137 23.7171C89.9012 23.568 89.5789 23.4959 89.276 23.4959C88.5162 23.4861 87.8814 24.0056 87.7804 24.7606C87.7681 24.8328 87.7656 24.9049 87.7656 24.977C87.7656 25.5204 88.0542 25.9676 88.4485 26.3139C89.0448 26.8332 89.8912 27.1843 90.6942 27.4199C81.8364 31.8488 69.5354 35.8498 53.9789 35.8498V35.8549V35.8498C38.2733 35.8498 25.8809 31.7719 17.0086 27.2901C18.836 26.9438 20.3123 26.2081 21.4136 25.2078C22.9716 23.7989 23.765 21.8801 23.7602 19.8893C23.7602 19.4372 23.7221 18.9756 23.6396 18.514C23.3607 16.9847 22.5288 15.7729 21.4564 14.7823C19.8502 13.2916 17.7007 12.2481 15.907 11.1997C15.0126 10.6756 14.2047 10.1514 13.6084 9.5936C13.0072 9.03577 12.6225 8.4491 12.5072 7.79029C12.4739 7.61236 12.4542 7.42482 12.4542 7.23726C12.4542 6.39092 12.7812 5.48687 13.5026 4.79439C14.219 4.10192 15.3395 3.6018 16.9889 3.59699C17.8834 3.59699 18.9317 3.74607 20.1435 4.09711C20.4946 4.19805 20.8168 4.25099 21.1149 4.25099C21.9468 4.26535 22.5672 3.80377 22.8172 3.14497C22.9083 2.90934 22.9567 2.6737 22.9567 2.44769C22.9567 1.88024 22.6586 1.40417 22.2401 1.06757C21.8218 0.730945 21.2832 0.504922 20.7157 0.384701C19.5857 0.158681 18.3595 0.004796 17.0707 0C17.0583 0 17.0472 0 17.0375 0C13.5943 0 11.0937 0.966568 9.45871 2.40922C7.81894 3.84706 7.05913 5.75135 7.05913 7.56909C7.05913 7.97302 7.09728 8.37215 7.16992 8.76168C7.67491 11.4161 9.8726 13.1136 12.1135 14.489C14.364 15.8595 16.7106 16.9703 17.6003 18.2254C18.086 18.8939 18.3168 19.7017 18.3168 20.4808C18.3168 21.2742 18.0716 22.0292 17.6243 22.5678C16.778 23.5873 15.1815 24.2749 13.4647 24.2749C12.3779 24.2749 11.2526 24.0056 10.2236 23.3949C10.1656 23.3565 10.012 23.2746 9.99755 23.2651C7.53062 21.6637 5.54456 20.1538 4.04427 18.9179C2.90455 17.9802 2.04861 17.1963 1.47628 16.6481C1.18785 16.3788 0.971433 16.1624 0.831944 16.0182C0.687667 15.8739 0.620331 15.797 0.620331 15.797C0.539081 15.7104 0.41844 15.6816 0.307758 15.7152C0.20189 15.749 0.120272 15.8451 0.105869 15.9605C0.0431593 16.3885 0 16.9271 0 17.5522C0 17.6004 0 17.6483 0 17.6965V17.7398C0.02959 19.3604 0.577115 20.6107 2.0534 21.9764C2.40931 22.337 22.212 42.4716 53.9791 42.4764C85.751 42.4712 105.549 22.337 105.905 21.9764C107.381 20.6107 107.929 19.3604 107.958 17.7398V17.5523C107.958 16.9271 107.915 16.3885 107.857 15.9605" fill="#EB7F02"/>
</svg>
