<svg width="132" height="42" viewBox="0 0 132 42" fill="none" xmlns="http://www.w3.org/2000/svg">
<path fill-rule="evenodd" clip-rule="evenodd" d="M114.519 0.278049C116.393 -0.238841 118.393 -0.0300709 120.119 0.862683C121.846 1.75544 123.172 3.26649 123.834 5.09421C124.801 7.75572 124.101 10.9262 122.158 12.9727C121.505 13.6895 120.608 14.1052 119.891 14.7414C119.405 15.1401 119.579 15.999 120.146 16.2259C120.529 16.438 120.968 16.2619 121.369 16.2004C123.445 15.719 125.513 15.1952 127.591 14.7159C128.236 14.5723 128.911 14.6576 129.5 14.9571C130.089 15.2566 130.555 15.7516 130.819 16.3574C131.086 17.1548 131.243 17.984 131.441 18.8047C131.763 20.1959 130.86 21.744 129.468 22.1024C127.365 22.6559 125.227 23.1161 123.129 23.6611C122.389 23.8435 121.675 24.3822 121.552 25.1775C121.39 25.8943 121.806 26.5686 122.235 27.1094C124.376 29.7759 126.518 32.4416 128.66 35.1067C128.976 35.4863 129.188 35.9407 129.277 36.4262C129.366 36.9117 129.328 37.4118 129.167 37.8785C128.796 39.0046 127.683 39.575 126.834 40.3237C125.719 41.3225 123.814 41.2144 122.854 40.0543C121.144 38.0142 119.492 35.9253 117.806 33.8661C117.446 33.4313 116.909 32.9902 116.305 33.145C115.872 33.3212 115.498 33.615 115.223 33.9933C113.677 35.9232 112.106 37.8339 110.558 39.7574C110.261 40.1859 109.854 40.5263 109.38 40.7428C108.906 40.9593 108.383 41.0438 107.865 40.9874C106.671 40.9069 105.892 39.9016 104.989 39.2506C103.716 38.3408 103.464 36.3431 104.469 35.1448C106.59 32.4749 108.745 29.8176 110.882 27.1582C111.34 26.5983 111.758 25.9049 111.595 25.1499C111.491 24.3461 110.732 23.8393 110.004 23.6505C107.941 23.131 105.869 22.658 103.808 22.1385C103.133 21.9651 102.545 21.551 102.154 20.974C101.763 20.397 101.597 19.6971 101.687 19.0061C101.837 18.1812 102.045 17.3668 102.268 16.5588C102.489 15.9076 102.94 15.3594 103.537 15.0173C104.134 14.6752 104.835 14.5628 105.508 14.7011C107.784 15.1995 110.034 15.8208 112.316 16.2853C113.164 16.5928 113.93 15.4667 113.347 14.8008C112.761 14.2324 111.996 13.8931 111.406 13.3311C108.624 10.9071 108.072 6.34968 110.223 3.34249C111.254 1.85142 112.774 0.767487 114.519 0.278049Z" fill="#78009D"/>
<path fill-rule="evenodd" clip-rule="evenodd" d="M32.8543 3.23857C35.0577 2.40301 37.732 3.55032 38.6545 5.7177C39.0082 6.50008 39.1384 7.36512 39.0307 8.21696C38.923 9.0688 38.5815 9.8742 38.0442 10.5439C37.5069 11.2136 36.7947 11.7216 35.9864 12.0114C35.1782 12.3012 34.3055 12.3616 33.4651 12.1859C32.5183 11.9874 31.6572 11.498 31.0021 10.7863C30.347 10.0745 29.9306 9.17586 29.8111 8.21591C29.4908 6.11003 30.8438 3.92145 32.8543 3.23857Z" fill="#78009D"/>
<path fill-rule="evenodd" clip-rule="evenodd" d="M2.05304 15.3946C3.27882 14.9535 4.47491 13.961 5.84701 14.3491C6.27796 14.4689 6.67494 14.6878 7.00631 14.9883C7.33769 15.2887 7.59429 15.6624 7.75566 16.0796C9.72369 20.0369 11.6748 24.0026 13.6513 27.9556C15.6299 23.9114 17.6658 19.8969 19.6444 15.8527C20.1704 14.7054 21.5531 13.9949 22.781 14.3406C23.519 14.5527 24.1913 14.9514 24.9017 15.2419C25.6122 15.5324 26.3862 15.8145 26.8104 16.4783C27.1007 16.8873 27.2668 17.3714 27.2886 17.8725C27.3104 18.3736 27.1871 18.8704 26.9334 19.3031C23.8117 24.8806 20.6624 30.4411 17.5386 36.0144C17.1904 36.688 16.6267 37.2255 15.9374 37.5413C14.9598 37.9654 13.8697 37.7385 12.8369 37.8021C12.2411 37.8381 11.647 37.7064 11.1222 37.4219C10.5975 37.1374 10.1629 36.7115 9.8679 36.1925C6.83527 30.82 3.80546 25.4398 0.778486 20.0517C0.369187 19.3497 -0.0825271 18.599 0.0129054 17.7507C0.0595613 16.5992 1.02025 15.7403 2.05304 15.3946Z" fill="#78009D"/>
<path fill-rule="evenodd" clip-rule="evenodd" d="M44.4612 15.0065C45.4664 14.5251 46.6222 13.9249 47.7356 14.4678C49.0271 14.9513 49.4046 16.3765 49.9878 17.4856C51.7544 20.9551 53.4085 24.484 55.209 27.9323C57.1884 23.9071 59.1818 19.8855 61.1895 15.8675C61.7048 14.7011 63.1108 13.9843 64.3515 14.3469C65.0789 14.5738 65.7448 14.9534 66.4467 15.2419C67.0957 15.5388 67.8316 15.7657 68.279 16.3616C68.6064 16.7795 68.8 17.2865 68.8344 17.8163C68.8689 18.346 68.7426 18.8739 68.472 19.3306C65.3178 24.9322 62.1636 30.5337 59.0094 36.1352C58.7288 36.6552 58.309 37.0868 57.7969 37.3816C57.2849 37.6763 56.7009 37.8227 56.1103 37.8042C54.9418 37.7364 53.6651 38.0312 52.6048 37.3928C51.941 37.0577 51.5105 36.43 51.1712 35.7938C48.1074 30.3266 45.0359 24.8643 41.9566 19.407C41.6881 18.9852 41.5454 18.4956 41.5454 17.9956C41.5454 17.4956 41.6881 17.006 41.9566 16.5843C42.491 15.6766 43.5853 15.4539 44.4612 15.0065Z" fill="#78009D"/>
<path fill-rule="evenodd" clip-rule="evenodd" d="M79.5525 14.5484C81.9808 14.1242 84.5596 14.3724 86.7927 15.4539C89.3325 16.6469 91.3634 18.7067 92.5202 21.2631C93.6771 23.8195 93.884 26.7048 93.1038 29.4001C92.3235 32.0954 90.6074 34.424 88.2638 35.9672C85.9203 37.5103 83.1031 38.1668 80.3188 37.8185C77.5345 37.4703 74.9658 36.1402 73.0745 34.0674C71.1832 31.9946 70.0934 29.315 70.001 26.5106C69.9087 23.7061 70.8198 20.9607 72.5707 18.768C74.3215 16.5752 76.7972 15.079 79.5525 14.5484ZM81.141 21.5871C80.4346 21.6904 79.7614 21.9544 79.1731 22.3589C78.5848 22.7633 78.0972 23.2973 77.7478 23.9199C77.3407 24.6407 77.1338 25.4573 77.1486 26.2851C77.1635 27.1128 77.3995 27.9215 77.8322 28.6273C78.2649 29.333 78.8786 29.9102 79.6096 30.2989C80.3405 30.6875 81.1622 30.8736 81.9893 30.8377C84.445 30.8122 86.5955 28.5049 86.4067 26.0427C86.4322 23.3791 83.7494 21.1269 81.141 21.5871Z" fill="#78009D"/>
<path fill-rule="evenodd" clip-rule="evenodd" d="M32.6359 14.6523C33.6687 14.5739 34.7057 14.6354 35.7407 14.6163C37.2739 14.5675 38.5464 16.0138 38.5146 17.509C38.5464 23.1713 38.5146 28.8336 38.5294 34.4981C38.5739 35.5584 38.1837 36.6888 37.257 37.2953C36.1966 38.0651 34.8266 37.7194 33.6115 37.8C33.0349 37.8653 32.4519 37.7593 31.9352 37.4953C31.4185 37.2313 30.991 36.8209 30.7061 36.3155C30.2819 35.5754 30.3519 34.6974 30.3498 33.8767C30.3498 28.4349 30.3498 22.9917 30.3498 17.5471C30.3344 16.874 30.5543 16.2165 30.9716 15.6881C31.3889 15.1596 31.9775 14.7934 32.6359 14.6523Z" fill="#78009D"/>
</svg>
